<svg xmlns="http://www.w3.org/2000/svg" version="1.1" xmlns:xlink="http://www.w3.org/1999/xlink" width="1000" height="1000"><style>
    #light-icon {
      display: inline;
    }
    #dark-icon {
      display: none;
    }

    @media (prefers-color-scheme: dark) {
      #light-icon {
        display: none;
      }
      #dark-icon {
        display: inline;
      }
    }
  </style><g id="light-icon"><svg xmlns="http://www.w3.org/2000/svg" version="1.1" xmlns:xlink="http://www.w3.org/1999/xlink" width="1000" height="1000"><g><g transform="matrix(14.492753623188406,0,0,14.492753623188406,57.971014492753625,0)"><svg xmlns="http://www.w3.org/2000/svg" version="1.1" xmlns:xlink="http://www.w3.org/1999/xlink" width="61.10088mm" height="69.419075mm"><svg width="61.10088mm" height="69.419075mm" viewBox="0 0 61.100879 69.419074" version="1.1" id="svg1" xml:space="preserve" sodipodi:docname="logo.svg" inkscape:version="1.4.2 (f4327f4, 2025-05-13)" xmlns:inkscape="http://www.inkscape.org/namespaces/inkscape" xmlns:sodipodi="http://sodipodi.sourceforge.net/DTD/sodipodi-0.dtd" xmlns="http://www.w3.org/2000/svg" xmlns:svg="http://www.w3.org/2000/svg"><sodipodi:namedview id="namedview1" pagecolor="#ffffff" bordercolor="#000000" borderopacity="0.25" inkscape:showpageshadow="2" inkscape:pageopacity="0.0" inkscape:pagecheckerboard="true" inkscape:deskcolor="#d1d1d1" inkscape:document-units="mm" inkscape:zoom="2.078763" inkscape:cx="84.184681" inkscape:cy="120.50436" inkscape:window-width="1920" inkscape:window-height="1027" inkscape:window-x="-8" inkscape:window-y="-8" inkscape:window-maximized="1" inkscape:current-layer="g15"></sodipodi:namedview><defs id="defs1"></defs><g inkscape:label="EyeMask" inkscape:groupmode="layer" id="layer1" transform="translate(-75.181669,-104.31129)" style="display:inline"><path style="fill:#ff00ff;fill-opacity:1" d="m 93.124018,146.09996 c -3.34185,-1.34112 -8.693584,-4.3815 -9.509458,-5.40242 -0.545826,-0.68301 -0.556101,-0.8546 -0.381359,-6.36883 0.09877,-3.1168 0.287286,-5.86816 0.418925,-6.11413 0.146805,-0.27431 0.718107,-0.51284 1.477622,-0.61694 0.681053,-0.0934 10.362981,-0.16973 21.515392,-0.16973 17.35093,0 20.35673,0.0558 20.82875,0.38638 0.51966,0.36398 0.56258,0.72037 0.74074,6.15156 0.12235,3.73002 0.0942,6.0131 -0.0797,6.46748 -0.25346,0.66216 -2.68426,2.27373 -3.08025,2.04213 -0.0927,-0.0542 -0.28656,0.11227 -0.43079,0.37 -0.14423,0.25772 -0.37398,0.39952 -0.51055,0.31511 -0.13658,-0.0844 -0.24833,-0.0418 -0.24833,0.0946 0,0.26386 -1.58359,1.01046 -1.91822,0.90437 -0.10915,-0.0346 -0.19844,0.0423 -0.19844,0.17082 0,0.227 -0.98939,0.64627 -1.38906,0.58864 -0.10915,-0.0157 -0.19844,0.0975 -0.19844,0.25158 0,0.15411 -0.11906,0.20661 -0.26459,0.11668 -0.14552,-0.0899 -0.26458,-0.0536 -0.26458,0.0807 0,0.39438 -2.17241,1.10989 -3.36983,1.10989 -0.60675,0 -1.43621,-0.14529 -1.84324,-0.32287 -0.88941,-0.38804 -3.61742,-2.11856 -3.73128,-2.36695 -0.0444,-0.097 -2.17482,-0.19082 -4.73417,-0.20858 -4.60622,-0.032 -4.664,-0.0252 -5.70422,0.66314 -0.577979,0.38249 -0.968853,0.53588 -0.868611,0.34087 0.100243,-0.19501 0.01148,-0.14621 -0.197259,0.10846 -0.208735,0.25466 -0.515221,0.46302 -0.681079,0.46302 -0.165859,0 -0.301561,0.10098 -0.301561,0.2244 0,0.12342 -0.446484,0.42128 -0.992187,0.66191 -1.041153,0.4591 -3.015705,0.48746 -4.084215,0.0587 z m 4.780511,-2.53297 c 2.715351,-1.75501 3.246261,-1.90567 7.227711,-2.05091 1.99349,-0.0727 3.83896,-0.0394 4.10104,0.0741 0.26208,0.11349 0.59558,0.21786 0.7411,0.23192 0.57787,0.0559 2.1597,0.81722 2.91042,1.40085 1.14312,0.88869 1.3003,0.99168 1.73013,1.13362 0.4706,0.15542 3.14346,0.13469 3.69382,-0.0286 0.81654,-0.24233 4.45967,-2.22674 6.65967,-3.62752 1.47844,-0.94135 1.50156,-0.9754 1.5875,-2.33705 0.048,-0.75998 0.0513,-3.11465 0.007,-5.23259 l -0.0797,-3.8508 h -20.7562 -20.756197 v 5.26211 5.26211 l 1.735072,1.08789 c 0.95429,0.59834 1.824808,1.08789 1.934485,1.08789 0.109677,0 0.459988,0.24276 0.77847,0.53947 0.318481,0.29671 0.579056,0.48597 0.579056,0.42058 0,-0.0654 0.803672,0.28331 1.785938,0.77487 2.571498,1.28689 3.951939,1.25352 6.120255,-0.14793 z" id="path2" sodipodi:nodetypes="cssscscsccscssscscssscccsssssccccscsccscccccccssssccc"></path></g><g inkscape:label="Helmet" inkscape:groupmode="layer" id="g15" transform="translate(-75.181669,-104.31129)" style="display:inline"><path style="display:inline;fill:#00ffff;fill-opacity:1" d="m 97.274378,172.17221 c -2.365655,-1.53674 -6.01291,-5.05812 -10.980208,-10.60126 -1.091407,-1.21793 -2.318698,-2.58203 -2.727315,-3.03133 -1.382851,-1.52054 -1.552804,-1.98141 -2.153839,-5.84057 -0.330046,-2.11919 -0.646727,-3.88095 -0.703736,-3.91503 -0.864554,-0.51679 -4.48768,-3.05198 -4.932298,-3.45125 -0.539437,-0.48442 -0.595313,-0.77466 -0.595313,-3.09224 0,-1.40671 0.0772,-4.34127 0.171558,-6.52126 l 0.171558,-3.96361 0.718094,-0.31786 c 0.608924,-0.26954 0.743541,-0.52811 0.885475,-1.70085 0.20864,-1.7239 0.637433,-4.71225 0.898315,-6.26053 0.169429,-1.00554 0.343406,-1.25153 1.216319,-1.7198 0.831063,-0.44581 1.165599,-0.88379 1.816937,-2.37876 3.476008,-7.97824 9.634044,-12.79208 18.860287,-14.7434 2.050748,-0.43372 9.811068,-0.43005 11.906248,0.006 3.29161,0.68448 5.65317,1.60752 9.63504,3.76594 1.19205,0.64617 4.89343,4.12073 6.17085,5.79271 0.38913,0.50932 1.43164,2.39234 2.31668,4.18448 1.31548,2.66374 1.74502,3.3058 2.35345,3.5179 0.63331,0.22077 0.79302,0.48445 1.0713,1.76864 0.54361,2.50863 0.58392,2.75534 0.80315,4.91518 0.19506,1.92166 0.2804,2.1419 1.10132,2.84222 l 0.88988,0.75913 0.0874,6.21738 c 0.0692,4.91936 0.0139,6.28716 -0.26459,6.55168 -0.89781,0.85264 -3.10433,2.57027 -4.10944,3.19892 -0.88842,0.55567 -1.14726,0.8954 -1.28931,1.69225 -1.24218,6.96818 -1.30487,7.17183 -2.60104,8.44969 -0.67233,0.66284 -1.31022,1.3561 -1.41753,1.54058 -0.2317,0.39832 -2.99307,3.54373 -5.2222,5.94848 -2.99632,3.23239 -4.76614,4.82176 -7.10656,6.38203 l -2.34406,1.56269 -6.1226,-0.005 -6.122612,-0.005 z m 15.733652,-1.43698 c 1.45877,-0.84903 6.48125,-5.64926 8.82323,-8.43281 0.69677,-0.82813 2.26134,-2.60622 3.47683,-3.95129 l 2.20999,-2.4456 0.4528,-2.531 c 0.24904,-1.39204 0.55752,-2.94771 0.68553,-3.45703 0.128,-0.50933 0.23339,-1.25105 0.2342,-1.64827 10e-4,-0.58331 0.21776,-0.83179 1.12596,-1.29186 0.61846,-0.31329 1.87731,-1.16632 2.79744,-1.89561 l 1.67297,-1.32599 -0.17813,-5.18737 c -0.14255,-4.15103 -0.2567,-5.24022 -0.57141,-5.45195 -0.2163,-0.14552 -0.56083,-0.38364 -0.76562,-0.52916 -0.24318,-0.1728 -0.47093,-1.22833 -0.65653,-3.04271 -0.58353,-5.70432 -0.48953,-5.49035 -2.5739,-5.85908 -0.6854,-0.12125 -2.31774,-0.44182 -3.62743,-0.71237 l -2.38125,-0.4919 1.05834,-0.28615 c 0.58208,-0.15738 1.74294,-0.43261 2.57968,-0.61163 0.9557,-0.20445 1.52136,-0.46059 1.52136,-0.68888 0,-0.3494 -0.59041,-1.55488 -1.96656,-4.01528 -0.87395,-1.56253 -3.8845,-4.87513 -5.34188,-5.87784 -3.92149,-2.69805 -7.43409,-4.02855 -12.31034,-4.6629 -2.93802,-0.38221 -3.78542,-0.39822 -6.05886,-0.11449 -5.117282,0.63863 -8.926467,1.92738 -12.340986,4.17526 -2.003727,1.31912 -3.27746,2.49751 -4.898427,4.53176 -1.292273,1.62175 -3.385034,5.31806 -3.385034,5.97876 0,0.18294 0.595312,0.47419 1.322917,0.64722 0.727604,0.17303 1.947994,0.46343 2.711979,0.64533 l 1.389062,0.33073 -1.190625,0.17905 c -0.654843,0.0985 -1.726406,0.31219 -2.38125,0.4749 -0.654844,0.16271 -1.89556,0.37979 -2.757148,0.4824 l -1.566524,0.18657 -0.32593,1.32291 c -0.449747,1.82548 -0.906648,4.95792 -0.906648,6.21583 0,0.88258 -0.117951,1.10762 -0.752555,1.43579 l -0.752555,0.38916 -0.184988,5.19906 c -0.129358,3.63557 -0.09776,5.30417 0.105091,5.54859 0.377017,0.45427 3.632634,2.64622 4.523089,3.0453 0.631744,0.28314 0.726262,0.54361 1.13515,3.12819 0.976118,6.17004 0.626557,5.41745 4.496693,9.68116 4.957813,5.46199 8.838555,9.26724 10.785265,10.57546 l 2.024984,1.36081 5.64793,-0.0907 5.64794,-0.0907 z m -14.562954,-5.12778 c -0.450705,-0.07 -1.938051,-1.37776 -4.393312,-3.86296 -3.697183,-3.74228 -3.714565,-3.76561 -4.376427,-5.87387 -1.056688,-3.36592 -1.314325,-4.48781 -1.220139,-5.31316 0.08679,-0.7605 0.103106,-0.75011 1.072232,0.68295 0.541257,0.80037 1.338844,2.43907 1.772414,3.64157 0.43357,1.20249 0.858241,2.29951 0.943713,2.4378 0.266936,0.43191 6.229078,6.21883 6.506284,6.31507 0.261338,0.0907 1.819519,-1.50399 1.827599,-1.87045 0.002,-0.10541 0.35551,-0.3733 0.78484,-0.59532 0.92092,-0.47622 8.17588,-0.58494 9.01639,-0.13512 0.27598,0.14771 0.86919,0.80255 1.31823,1.45521 0.44904,0.65266 0.94949,1.18666 1.1121,1.18666 0.35072,0 6.82267,-6.35046 6.82267,-6.69459 0,-0.13029 0.16464,-0.61208 0.36585,-1.07063 0.20122,-0.45856 0.52195,-1.25046 0.71272,-1.75978 0.61307,-1.63674 2.48443,-4.59154 2.58682,-4.08449 0.13831,0.6849 -0.48452,3.39769 -1.3317,5.80035 -0.72736,2.06285 -0.83333,2.20127 -4.4884,5.86287 -3.40347,3.40956 -3.83979,3.75933 -4.80427,3.85131 -1.21769,0.11613 -1.68963,-0.25493 -2.43963,-1.91814 l -0.47134,-1.04523 h -3.74856 c -3.63333,0 -3.76564,0.0196 -4.30403,0.63884 -0.30551,0.35137 -0.68339,0.87787 -0.83973,1.17 -0.40648,0.75951 -1.067992,1.37268 -1.431108,1.32651 -0.171507,-0.0218 -0.618454,-0.0872 -0.993216,-0.1454 z" id="path15" sodipodi:nodetypes="cssscssscssscsccssssssccccssssssccccssscsscsscssscsscscsscsccssssccsccssscsssssscccsssssssscccssssscssssscsssss"></path></g></svg></svg></g></g></svg></g><g id="dark-icon"><svg xmlns="http://www.w3.org/2000/svg" version="1.1" xmlns:xlink="http://www.w3.org/1999/xlink" width="1000" height="1000"><g clip-path="url(#SvgjsClipPath1012)"><rect width="1000" height="1000" fill="#000000"></rect><g transform="matrix(10.144927536231885,0,0,10.144927536231885,190.5797101449275,150)"><svg xmlns="http://www.w3.org/2000/svg" version="1.1" xmlns:xlink="http://www.w3.org/1999/xlink" width="61.10088mm" height="69.419075mm"><svg width="61.10088mm" height="69.419075mm" viewBox="0 0 61.100879 69.419074" version="1.1" id="svg1" xml:space="preserve" sodipodi:docname="logo.svg" inkscape:version="1.4.2 (f4327f4, 2025-05-13)" xmlns:inkscape="http://www.inkscape.org/namespaces/inkscape" xmlns:sodipodi="http://sodipodi.sourceforge.net/DTD/sodipodi-0.dtd" xmlns="http://www.w3.org/2000/svg" xmlns:svg="http://www.w3.org/2000/svg"><sodipodi:namedview id="namedview1" pagecolor="#ffffff" bordercolor="#000000" borderopacity="0.25" inkscape:showpageshadow="2" inkscape:pageopacity="0.0" inkscape:pagecheckerboard="true" inkscape:deskcolor="#d1d1d1" inkscape:document-units="mm" inkscape:zoom="2.078763" inkscape:cx="84.184681" inkscape:cy="120.50436" inkscape:window-width="1920" inkscape:window-height="1027" inkscape:window-x="-8" inkscape:window-y="-8" inkscape:window-maximized="1" inkscape:current-layer="g15"></sodipodi:namedview><defs id="defs1"><clipPath id="SvgjsClipPath1012"><rect width="1000" height="1000" x="0" y="0" rx="350" ry="350"></rect></clipPath></defs><g inkscape:label="EyeMask" inkscape:groupmode="layer" id="layer1" transform="translate(-75.181669,-104.31129)" style="display:inline"><path style="fill:#ff00ff;fill-opacity:1" d="m 93.124018,146.09996 c -3.34185,-1.34112 -8.693584,-4.3815 -9.509458,-5.40242 -0.545826,-0.68301 -0.556101,-0.8546 -0.381359,-6.36883 0.09877,-3.1168 0.287286,-5.86816 0.418925,-6.11413 0.146805,-0.27431 0.718107,-0.51284 1.477622,-0.61694 0.681053,-0.0934 10.362981,-0.16973 21.515392,-0.16973 17.35093,0 20.35673,0.0558 20.82875,0.38638 0.51966,0.36398 0.56258,0.72037 0.74074,6.15156 0.12235,3.73002 0.0942,6.0131 -0.0797,6.46748 -0.25346,0.66216 -2.68426,2.27373 -3.08025,2.04213 -0.0927,-0.0542 -0.28656,0.11227 -0.43079,0.37 -0.14423,0.25772 -0.37398,0.39952 -0.51055,0.31511 -0.13658,-0.0844 -0.24833,-0.0418 -0.24833,0.0946 0,0.26386 -1.58359,1.01046 -1.91822,0.90437 -0.10915,-0.0346 -0.19844,0.0423 -0.19844,0.17082 0,0.227 -0.98939,0.64627 -1.38906,0.58864 -0.10915,-0.0157 -0.19844,0.0975 -0.19844,0.25158 0,0.15411 -0.11906,0.20661 -0.26459,0.11668 -0.14552,-0.0899 -0.26458,-0.0536 -0.26458,0.0807 0,0.39438 -2.17241,1.10989 -3.36983,1.10989 -0.60675,0 -1.43621,-0.14529 -1.84324,-0.32287 -0.88941,-0.38804 -3.61742,-2.11856 -3.73128,-2.36695 -0.0444,-0.097 -2.17482,-0.19082 -4.73417,-0.20858 -4.60622,-0.032 -4.664,-0.0252 -5.70422,0.66314 -0.577979,0.38249 -0.968853,0.53588 -0.868611,0.34087 0.100243,-0.19501 0.01148,-0.14621 -0.197259,0.10846 -0.208735,0.25466 -0.515221,0.46302 -0.681079,0.46302 -0.165859,0 -0.301561,0.10098 -0.301561,0.2244 0,0.12342 -0.446484,0.42128 -0.992187,0.66191 -1.041153,0.4591 -3.015705,0.48746 -4.084215,0.0587 z m 4.780511,-2.53297 c 2.715351,-1.75501 3.246261,-1.90567 7.227711,-2.05091 1.99349,-0.0727 3.83896,-0.0394 4.10104,0.0741 0.26208,0.11349 0.59558,0.21786 0.7411,0.23192 0.57787,0.0559 2.1597,0.81722 2.91042,1.40085 1.14312,0.88869 1.3003,0.99168 1.73013,1.13362 0.4706,0.15542 3.14346,0.13469 3.69382,-0.0286 0.81654,-0.24233 4.45967,-2.22674 6.65967,-3.62752 1.47844,-0.94135 1.50156,-0.9754 1.5875,-2.33705 0.048,-0.75998 0.0513,-3.11465 0.007,-5.23259 l -0.0797,-3.8508 h -20.7562 -20.756197 v 5.26211 5.26211 l 1.735072,1.08789 c 0.95429,0.59834 1.824808,1.08789 1.934485,1.08789 0.109677,0 0.459988,0.24276 0.77847,0.53947 0.318481,0.29671 0.579056,0.48597 0.579056,0.42058 0,-0.0654 0.803672,0.28331 1.785938,0.77487 2.571498,1.28689 3.951939,1.25352 6.120255,-0.14793 z" id="path2" sodipodi:nodetypes="cssscscsccscssscscssscccsssssccccscsccscccccccssssccc"></path></g><g inkscape:label="Helmet" inkscape:groupmode="layer" id="g15" transform="translate(-75.181669,-104.31129)" style="display:inline"><path style="display:inline;fill:#00ffff;fill-opacity:1" d="m 97.274378,172.17221 c -2.365655,-1.53674 -6.01291,-5.05812 -10.980208,-10.60126 -1.091407,-1.21793 -2.318698,-2.58203 -2.727315,-3.03133 -1.382851,-1.52054 -1.552804,-1.98141 -2.153839,-5.84057 -0.330046,-2.11919 -0.646727,-3.88095 -0.703736,-3.91503 -0.864554,-0.51679 -4.48768,-3.05198 -4.932298,-3.45125 -0.539437,-0.48442 -0.595313,-0.77466 -0.595313,-3.09224 0,-1.40671 0.0772,-4.34127 0.171558,-6.52126 l 0.171558,-3.96361 0.718094,-0.31786 c 0.608924,-0.26954 0.743541,-0.52811 0.885475,-1.70085 0.20864,-1.7239 0.637433,-4.71225 0.898315,-6.26053 0.169429,-1.00554 0.343406,-1.25153 1.216319,-1.7198 0.831063,-0.44581 1.165599,-0.88379 1.816937,-2.37876 3.476008,-7.97824 9.634044,-12.79208 18.860287,-14.7434 2.050748,-0.43372 9.811068,-0.43005 11.906248,0.006 3.29161,0.68448 5.65317,1.60752 9.63504,3.76594 1.19205,0.64617 4.89343,4.12073 6.17085,5.79271 0.38913,0.50932 1.43164,2.39234 2.31668,4.18448 1.31548,2.66374 1.74502,3.3058 2.35345,3.5179 0.63331,0.22077 0.79302,0.48445 1.0713,1.76864 0.54361,2.50863 0.58392,2.75534 0.80315,4.91518 0.19506,1.92166 0.2804,2.1419 1.10132,2.84222 l 0.88988,0.75913 0.0874,6.21738 c 0.0692,4.91936 0.0139,6.28716 -0.26459,6.55168 -0.89781,0.85264 -3.10433,2.57027 -4.10944,3.19892 -0.88842,0.55567 -1.14726,0.8954 -1.28931,1.69225 -1.24218,6.96818 -1.30487,7.17183 -2.60104,8.44969 -0.67233,0.66284 -1.31022,1.3561 -1.41753,1.54058 -0.2317,0.39832 -2.99307,3.54373 -5.2222,5.94848 -2.99632,3.23239 -4.76614,4.82176 -7.10656,6.38203 l -2.34406,1.56269 -6.1226,-0.005 -6.122612,-0.005 z m 15.733652,-1.43698 c 1.45877,-0.84903 6.48125,-5.64926 8.82323,-8.43281 0.69677,-0.82813 2.26134,-2.60622 3.47683,-3.95129 l 2.20999,-2.4456 0.4528,-2.531 c 0.24904,-1.39204 0.55752,-2.94771 0.68553,-3.45703 0.128,-0.50933 0.23339,-1.25105 0.2342,-1.64827 10e-4,-0.58331 0.21776,-0.83179 1.12596,-1.29186 0.61846,-0.31329 1.87731,-1.16632 2.79744,-1.89561 l 1.67297,-1.32599 -0.17813,-5.18737 c -0.14255,-4.15103 -0.2567,-5.24022 -0.57141,-5.45195 -0.2163,-0.14552 -0.56083,-0.38364 -0.76562,-0.52916 -0.24318,-0.1728 -0.47093,-1.22833 -0.65653,-3.04271 -0.58353,-5.70432 -0.48953,-5.49035 -2.5739,-5.85908 -0.6854,-0.12125 -2.31774,-0.44182 -3.62743,-0.71237 l -2.38125,-0.4919 1.05834,-0.28615 c 0.58208,-0.15738 1.74294,-0.43261 2.57968,-0.61163 0.9557,-0.20445 1.52136,-0.46059 1.52136,-0.68888 0,-0.3494 -0.59041,-1.55488 -1.96656,-4.01528 -0.87395,-1.56253 -3.8845,-4.87513 -5.34188,-5.87784 -3.92149,-2.69805 -7.43409,-4.02855 -12.31034,-4.6629 -2.93802,-0.38221 -3.78542,-0.39822 -6.05886,-0.11449 -5.117282,0.63863 -8.926467,1.92738 -12.340986,4.17526 -2.003727,1.31912 -3.27746,2.49751 -4.898427,4.53176 -1.292273,1.62175 -3.385034,5.31806 -3.385034,5.97876 0,0.18294 0.595312,0.47419 1.322917,0.64722 0.727604,0.17303 1.947994,0.46343 2.711979,0.64533 l 1.389062,0.33073 -1.190625,0.17905 c -0.654843,0.0985 -1.726406,0.31219 -2.38125,0.4749 -0.654844,0.16271 -1.89556,0.37979 -2.757148,0.4824 l -1.566524,0.18657 -0.32593,1.32291 c -0.449747,1.82548 -0.906648,4.95792 -0.906648,6.21583 0,0.88258 -0.117951,1.10762 -0.752555,1.43579 l -0.752555,0.38916 -0.184988,5.19906 c -0.129358,3.63557 -0.09776,5.30417 0.105091,5.54859 0.377017,0.45427 3.632634,2.64622 4.523089,3.0453 0.631744,0.28314 0.726262,0.54361 1.13515,3.12819 0.976118,6.17004 0.626557,5.41745 4.496693,9.68116 4.957813,5.46199 8.838555,9.26724 10.785265,10.57546 l 2.024984,1.36081 5.64793,-0.0907 5.64794,-0.0907 z m -14.562954,-5.12778 c -0.450705,-0.07 -1.938051,-1.37776 -4.393312,-3.86296 -3.697183,-3.74228 -3.714565,-3.76561 -4.376427,-5.87387 -1.056688,-3.36592 -1.314325,-4.48781 -1.220139,-5.31316 0.08679,-0.7605 0.103106,-0.75011 1.072232,0.68295 0.541257,0.80037 1.338844,2.43907 1.772414,3.64157 0.43357,1.20249 0.858241,2.29951 0.943713,2.4378 0.266936,0.43191 6.229078,6.21883 6.506284,6.31507 0.261338,0.0907 1.819519,-1.50399 1.827599,-1.87045 0.002,-0.10541 0.35551,-0.3733 0.78484,-0.59532 0.92092,-0.47622 8.17588,-0.58494 9.01639,-0.13512 0.27598,0.14771 0.86919,0.80255 1.31823,1.45521 0.44904,0.65266 0.94949,1.18666 1.1121,1.18666 0.35072,0 6.82267,-6.35046 6.82267,-6.69459 0,-0.13029 0.16464,-0.61208 0.36585,-1.07063 0.20122,-0.45856 0.52195,-1.25046 0.71272,-1.75978 0.61307,-1.63674 2.48443,-4.59154 2.58682,-4.08449 0.13831,0.6849 -0.48452,3.39769 -1.3317,5.80035 -0.72736,2.06285 -0.83333,2.20127 -4.4884,5.86287 -3.40347,3.40956 -3.83979,3.75933 -4.80427,3.85131 -1.21769,0.11613 -1.68963,-0.25493 -2.43963,-1.91814 l -0.47134,-1.04523 h -3.74856 c -3.63333,0 -3.76564,0.0196 -4.30403,0.63884 -0.30551,0.35137 -0.68339,0.87787 -0.83973,1.17 -0.40648,0.75951 -1.067992,1.37268 -1.431108,1.32651 -0.171507,-0.0218 -0.618454,-0.0872 -0.993216,-0.1454 z" id="path15" sodipodi:nodetypes="cssscssscssscsccssssssccccssssssccccssscsscsscssscsscscsscsccssssccsccssscsssssscccsssssssscccssssscssssscsssss"></path></g></svg></svg></g></g></svg></g></svg>